<svg height="512" viewBox="0 0 512 512" width="512" xmlns="http://www.w3.org/2000/svg"><linearGradient id="a" gradientUnits="userSpaceOnUse" x1="125.669" x2="334.669" y1="420.174" y2="150.174"><stop offset=".011" stop-color="#dafced"/><stop offset=".761" stop-color="#cbdcfa"/><stop offset="1" stop-color="#c6d1ff"/></linearGradient><path d="M497.061 251.773c-12.366-99.351-81.521 2.685-100.229-58.88-11.342-37.324 35.571-83.187 19.655-124.062-13.303-34.164-50.356-43.339-85.37-36.48-28.186 5.521-53.264 34.637-82.89 29.777-31.368-5.147-41.166-46.439-72.37-57.311C95.707-23.108 58.119 77.003 38.145 134.71c-25.383 73.334-49.5 169.154 28.422 217.901 82.06 51.335 137.233-21.039 189.876 82.161 103.816 203.52 257.922-43.974 240.618-182.999z" fill="url(#a)"/><g fill="#2626bc" opacity=".1"><path d="M450.98 281c0-77.922-45.718-145.171-111.791-176.397-11.823-5.587-25.429 3.169-25.429 16.246 0 6.89 3.942 13.196 10.172 16.14C377.877 162.482 415.19 217.376 415.19 281c0 78.949-57.464 144.462-132.855 157.009l2.789-2.789c6.936-6.936 7.151-18.502.086-25.307-6.851-6.6-17.756-6.522-24.511.234l-34.148 34.148a17.5 17.5 0 0 0 .001 24.75l34.148 34.148a17.446 17.446 0 0 0 12.375 5.125c4.525 0 9.05-1.744 12.48-5.233 6.787-6.903 6.42-18.115-.425-24.961l-3.781-3.781C377.054 461.916 450.98 380.087 450.98 281zM188.068 425.011C134.123 399.518 96.81 344.624 96.81 281c0-78.949 57.464-144.462 132.855-157.009l-2.795 2.795c-6.845 6.845-7.212 18.057-.426 24.959a17.447 17.447 0 0 0 12.482 5.234c4.479 0 8.958-1.708 12.375-5.125l34.148-34.148a17.5 17.5 0 0 0-.001-24.75L251.3 58.809c-6.756-6.755-17.658-6.834-24.509-.235-7.065 6.805-6.851 18.372.085 25.309l3.775 3.775C134.946 100.084 61.02 181.913 61.02 281c0 77.922 45.718 145.171 111.791 176.397 11.823 5.587 25.429-3.169 25.429-16.246 0-6.89-3.942-13.196-10.172-16.14z"/><path d="M233.604 328.966c0-8.942-7.25-16.193-16.193-16.193h-16.787c10.348-10.721 20.209-22.777 24.593-33.382 6.109-14.784 4.684-31.196-3.813-43.9-7.926-11.852-20.791-18.65-35.295-18.65-24.004 0-43.534 19.529-43.534 43.534 0 8.942 7.25 16.193 16.193 16.193s16.193-7.25 16.193-16.193c0-6.147 5.002-11.148 11.148-11.148 3.664 0 6.482 1.436 8.376 4.268 2.437 3.645 2.744 8.828.8 13.528-5.054 12.228-30.325 36.199-46.654 49.316a16.192 16.192 0 0 0-5.136 18 16.189 16.189 0 0 0 15.272 10.819h58.643c8.944.001 16.194-7.25 16.194-16.192zm44.916-95.646c0-8.94-7.25-16.19-16.19-16.19-8.95 0-16.2 7.25-16.2 16.19v41.89c0 8.94 7.25 16.19 16.2 16.19h34.4v37.28c0 8.94 7.25 16.19 16.19 16.19 8.95 0 16.2-7.25 16.2-16.19v-72.434c5.764 5.929 13.821 9.617 22.743 9.617 17.521 0 31.725-14.204 31.725-31.725s-14.204-31.725-31.725-31.725c-12.731 0-23.705 7.503-28.757 18.325a16.13 16.13 0 0 0-10.186-3.608c-8.94 0-16.19 7.25-16.19 16.19v25.7h-18.21z"/></g><path d="M450.98 256c0-77.922-45.718-145.171-111.791-176.397-11.823-5.587-25.429 3.169-25.429 16.246 0 6.89 3.942 13.196 10.172 16.14C377.877 137.482 415.19 192.376 415.19 256c0 78.949-57.464 144.462-132.855 157.009l2.789-2.789c6.936-6.936 7.151-18.502.086-25.307-6.851-6.6-17.756-6.522-24.511.233l-34.148 34.148a17.5 17.5 0 0 0 .001 24.75l34.148 34.148a17.446 17.446 0 0 0 12.375 5.125c4.525 0 9.05-1.744 12.48-5.233 6.787-6.903 6.42-18.115-.425-24.961l-3.781-3.781C377.054 436.916 450.98 355.087 450.98 256z" fill="#ff7eb8"/><path d="M285.448 67.957L251.3 33.809c-6.756-6.755-17.658-6.834-24.509-.235-7.065 6.805-6.851 18.372.085 25.309l3.775 3.775C134.946 75.084 61.02 156.913 61.02 256c0 77.922 45.718 145.171 111.791 176.397 11.823 5.587 25.429-3.169 25.429-16.246 0-6.89-3.942-13.196-10.172-16.14C134.123 374.518 96.81 319.624 96.81 256c0-78.949 57.464-144.462 132.855-157.009l-2.795 2.795c-6.845 6.845-7.212 18.057-.426 24.959a17.447 17.447 0 0 0 12.482 5.234c4.479 0 8.958-1.708 12.375-5.125l34.148-34.148a17.5 17.5 0 0 0-.001-24.749z" fill="#01eca5"/><path d="M273.074 488.316c-6.01 0-11.66-2.34-15.91-6.589l-34.147-34.149a22.346 22.346 0 0 1-6.591-15.909c0-6.01 2.34-11.66 6.59-15.909l34.148-34.148c8.61-8.611 22.749-8.746 31.516-.3 4.288 4.131 6.681 9.757 6.737 15.841a23.303 23.303 0 0 1-1.461 8.315c30.684-7.784 58.483-24.999 79.278-49.313C397.066 328.291 410.19 292.723 410.19 256c0-29.789-8.506-58.694-24.599-83.591-15.68-24.257-37.74-43.586-63.797-55.899-7.919-3.743-13.035-11.853-13.035-20.661 0-7.907 3.993-15.157 10.683-19.395 6.63-4.201 14.81-4.714 21.884-1.371 33.79 15.969 62.399 41.037 82.735 72.493C444.943 179.877 455.98 217.369 455.98 256c0 48.872-17.822 95.922-50.183 132.482-29.964 33.854-70.303 56.48-114.414 64.37 6.086 8.84 5.368 20.975-2.264 28.737-4.263 4.338-9.962 6.727-16.045 6.727zm.005-103.272c-3.211 0-6.421 1.215-8.845 3.638l-34.148 34.148c-2.36 2.361-3.66 5.5-3.66 8.839s1.3 6.478 3.661 8.838l34.147 34.149a12.424 12.424 0 0 0 8.84 3.66c3.38 0 6.546-1.327 8.915-3.737 4.79-4.873 4.613-12.911-.395-17.92l-3.781-3.781c-1.348-1.347-1.813-3.343-1.198-5.146s2.2-3.102 4.09-3.347c45.361-5.891 87.128-28.097 117.604-62.529C429.051 347.124 445.98 302.428 445.98 256c0-36.7-10.483-72.315-30.317-102.995-19.323-29.89-46.506-53.708-78.61-68.881-4.015-1.897-8.484-1.615-12.259.778a12.898 12.898 0 0 0-6.034 10.946c0 4.961 2.869 9.521 7.309 11.62 27.742 13.109 51.229 33.688 67.921 59.512 17.141 26.518 26.201 57.3 26.201 89.02 0 39.104-13.977 76.981-39.356 106.654-25.099 29.347-59.788 48.98-97.678 55.287a5.018 5.018 0 0 1-5.268-2.646 4.998 4.998 0 0 1 .911-5.822l2.789-2.789c2.466-2.467 3.861-5.907 3.829-9.438-.032-3.378-1.337-6.479-3.676-8.733-2.403-2.316-5.533-3.469-8.663-3.469zm-92.706 54.061c-3.297 0-6.604-.725-9.699-2.188-33.79-15.969-62.399-41.037-82.735-72.493C67.057 332.123 56.02 294.631 56.02 256c0-48.872 17.821-95.922 50.182-132.482 29.969-33.858 70.313-56.486 114.432-64.373a23.377 23.377 0 0 1-4.049-13.332c.057-6.084 2.45-11.709 6.738-15.84 8.767-8.445 22.903-8.309 31.514.3l34.147 34.149a22.346 22.346 0 0 1 6.591 15.909c0 6.01-2.34 11.66-6.59 15.909l-34.148 34.148a22.353 22.353 0 0 1-15.91 6.591c-6.083 0-11.782-2.39-16.047-6.729-6.263-6.369-7.869-15.685-4.88-23.707-30.666 7.789-58.449 24.999-79.233 49.301C114.934 183.709 101.81 219.277 101.81 256c0 29.789 8.506 58.694 24.599 83.591 15.68 24.257 37.74 43.586 63.797 55.899 7.919 3.743 13.035 11.853 13.035 20.661 0 7.907-3.993 15.157-10.683 19.395a22.751 22.751 0 0 1-12.185 3.559zm58.549-405.399c-3.13 0-6.259 1.154-8.662 3.469-2.339 2.253-3.645 5.354-3.677 8.731-.033 3.533 1.362 6.975 3.829 9.441l3.774 3.774c1.348 1.347 1.813 3.343 1.198 5.146s-2.2 3.102-4.09 3.347c-45.362 5.891-87.129 28.097-117.605 62.529C82.949 164.876 66.02 209.572 66.02 256c0 36.7 10.483 72.315 30.317 102.995 19.323 29.89 46.506 53.708 78.61 68.881 4.014 1.896 8.483 1.615 12.259-.778a12.898 12.898 0 0 0 6.034-10.946c0-4.961-2.869-9.521-7.309-11.62-27.742-13.109-51.229-33.688-67.921-59.512-17.14-26.518-26.2-57.3-26.2-89.02 0-39.104 13.977-76.981 39.356-106.654 25.099-29.347 59.788-48.981 97.678-55.287a5.01 5.01 0 0 1 5.268 2.646 4.998 4.998 0 0 1-.911 5.822l-2.795 2.795c-5.008 5.009-5.186 13.047-.396 17.919a12.406 12.406 0 0 0 8.916 3.739c3.339 0 6.479-1.301 8.84-3.661l34.148-34.148c2.36-2.361 3.66-5.5 3.66-8.839s-1.3-6.478-3.661-8.838v-.001l-34.147-34.148c-2.423-2.423-5.634-3.639-8.844-3.639z" fill="#2626bc"/><path d="M217.412 287.773h-16.787c10.348-10.721 20.209-22.777 24.593-33.382 6.109-14.784 4.684-31.196-3.813-43.9-7.926-11.852-20.791-18.65-35.295-18.65-24.004 0-43.534 19.529-43.534 43.534 0 8.942 7.25 16.193 16.193 16.193s16.193-7.25 16.193-16.193c0-6.147 5.002-11.148 11.148-11.148 3.664 0 6.482 1.436 8.376 4.268 2.437 3.645 2.744 8.828.8 13.528-5.054 12.228-30.325 36.199-46.653 49.316a16.192 16.192 0 0 0-5.136 18 16.19 16.19 0 0 0 15.272 10.819h58.643c8.942 0 16.193-7.25 16.193-16.193s-7.251-16.192-16.193-16.192zM329.12 208.32v95.36c0 8.94-7.25 16.19-16.2 16.19-8.94 0-16.19-7.25-16.19-16.19V266.4h-34.4c-8.95 0-16.2-7.25-16.2-16.19v-41.89c0-8.94 7.25-16.19 16.2-16.19 8.94 0 16.19 7.25 16.19 16.19v25.7h18.21v-25.7c0-8.94 7.25-16.19 16.19-16.19 8.95 0 16.2 7.25 16.2 16.19z" fill="#ff5ba8"/><path d="M329.12 210.75v44.23c-5.56-5.72-8.98-13.52-8.98-22.12s3.42-16.4 8.98-22.11z" fill="#fe2c8f"/><path d="M217.412 325.158h-14.695c-2.762 0-5-2.238-5-5s2.238-5 5-5h14.695c6.172 0 11.192-5.021 11.192-11.192s-5.021-11.192-11.192-11.192h-16.787a5.002 5.002 0 0 1-3.598-8.473c12.09-12.526 20.02-23.232 23.568-31.819 5.472-13.238 4.22-27.896-3.348-39.211-6.982-10.44-18.332-16.429-31.139-16.429-21.247 0-38.533 17.286-38.533 38.533 0 6.172 5.021 11.192 11.192 11.192s11.192-5.021 11.192-11.192c0-8.904 7.244-16.148 16.148-16.148 5.359 0 9.693 2.243 12.533 6.487 3.353 5.018 3.837 11.998 1.264 18.22-5.692 13.774-32.55 38.778-48.143 51.304a11.208 11.208 0 0 0-3.551 12.442 11.204 11.204 0 0 0 10.556 7.479h14.695c2.762 0 5 2.238 5 5s-2.238 5-5 5h-14.695c-8.977 0-17.01-5.69-19.989-14.159-2.979-8.468-.278-17.936 6.723-23.559 18.433-14.807 40.941-37.112 45.163-47.328 1.294-3.129 1.162-6.599-.336-8.84-.676-1.011-1.707-2.046-4.22-2.046a6.154 6.154 0 0 0-6.148 6.148c0 11.686-9.507 21.192-21.192 21.192s-21.192-9.507-21.192-21.192c0-26.762 21.771-48.533 48.533-48.533 16.202 0 30.581 7.606 39.451 20.87 9.427 14.095 11.026 32.259 4.277 48.59-3.16 7.645-9.139 16.521-17.82 26.472h5.395c11.686 0 21.192 9.507 21.192 21.192s-9.505 21.192-21.191 21.192z" fill="#2626bc"/><circle cx="351.863" cy="209.138" fill="#6583fe" r="31.725"/><path d="M351.862 172.413c-12.75 0-23.998 6.534-30.585 16.425a21.071 21.071 0 0 0-8.354-1.711c-11.686 0-21.192 9.507-21.192 21.193v20.697h-8.211V208.32c0-11.687-9.507-21.193-21.192-21.193-11.686 0-21.192 9.507-21.192 21.193v41.891c0 11.686 9.507 21.192 21.192 21.192h29.403v32.276c0 11.686 9.507 21.192 21.192 21.192s21.192-9.507 21.192-21.192V260.19c0-2.762-2.238-5-5-5s-5 2.238-5 5v43.489c0 6.172-5.021 11.192-11.192 11.192s-11.192-5.021-11.192-11.192v-37.276a5 5 0 0 0-5-5h-34.403c-6.172 0-11.192-5.021-11.192-11.192V208.32c0-6.172 5.02-11.193 11.192-11.193s11.192 5.021 11.192 11.193v25.697a5 5 0 0 0 5 5h18.211a5 5 0 0 0 5-5V208.32c0-6.172 5.021-11.193 11.192-11.193 1.386 0 2.73.257 3.992.74a36.574 36.574 0 0 0-1.777 11.271c0 20.251 16.475 36.726 36.725 36.726 20.251 0 36.726-16.475 36.726-36.726-.001-20.25-16.476-36.725-36.727-36.725zm0 63.45c-14.736 0-26.725-11.989-26.725-26.726s11.988-26.725 26.725-26.725 26.726 11.988 26.726 26.725-11.989 26.726-26.726 26.726z" fill="#2626bc"/><path d="M359.653 194.526a4.416 4.416 0 0 0-4.416 4.416v5.78h-6.748v-5.78a4.416 4.416 0 1 0-8.832 0v20.393a4.416 4.416 0 1 0 8.832 0v-5.78h6.748v5.78a4.416 4.416 0 1 0 8.832 0v-20.393a4.416 4.416 0 0 0-4.416-4.416z" fill="#fff"/><path d="M453.646 112.639a4.98 4.98 0 0 1-3.535-1.465l-5.965-5.964-5.965 5.964a4.998 4.998 0 0 1-7.07 0 4.998 4.998 0 0 1 0-7.07l9.5-9.5a4.998 4.998 0 0 1 7.07 0l9.5 9.5a4.998 4.998 0 0 1-3.535 8.535z" fill="#00eca2"/><path d="M425.146 82.279a4.98 4.98 0 0 1-3.535-1.465l-5.965-5.964-5.965 5.964a4.998 4.998 0 0 1-7.07 0 4.998 4.998 0 0 1 0-7.07l9.5-9.5a4.998 4.998 0 0 1 7.07 0l9.5 9.5a4.998 4.998 0 0 1 0 7.07 4.978 4.978 0 0 1-3.535 1.465z" fill="#6583fe"/><path d="M53.839 396.807a14.453 14.453 0 0 1-10.253-4.24c-5.654-5.653-5.654-14.853 0-20.506 5.652-5.654 14.854-5.654 20.506 0 5.654 5.653 5.654 14.853 0 20.506a14.453 14.453 0 0 1-10.253 4.24zm0-18.992a4.49 4.49 0 0 0-3.183 1.315 4.507 4.507 0 0 0 0 6.365 4.507 4.507 0 0 0 6.365 0 4.507 4.507 0 0 0 0-6.365 4.49 4.49 0 0 0-3.182-1.315zm390.307 33.492a14.453 14.453 0 0 1-10.253-4.24c-5.654-5.653-5.654-14.853 0-20.506 5.652-5.654 14.854-5.654 20.506 0 5.654 5.653 5.654 14.853 0 20.506a14.453 14.453 0 0 1-10.253 4.24zm0-18.992a4.49 4.49 0 0 0-3.183 1.315 4.507 4.507 0 0 0 0 6.365 4.507 4.507 0 0 0 6.365 0 4.507 4.507 0 0 0 0-6.365 4.489 4.489 0 0 0-3.182-1.315z" fill="#ff7eb8"/><path d="M103.321 423.286a4.98 4.98 0 0 1-3.535-1.465l-5.965-5.964-5.965 5.964a4.998 4.998 0 0 1-7.07 0 4.998 4.998 0 0 1 0-7.07l9.5-9.5a4.998 4.998 0 0 1 7.07 0l9.5 9.5a4.998 4.998 0 0 1 0 7.07 4.978 4.978 0 0 1-3.535 1.465z" fill="#6583fe"/></svg>