<svg xmlns="http://www.w3.org/2000/svg" id="Layer_1" viewBox="0 0 256 256" width="512" height="512"><style>.st0{fill:#f9cfcf}.st1{fill:#3762cc}.st2{fill:#6bdddd}.st3{fill:#e0ebfc}.st4{fill:#eaa97d}.st5{fill:#a4c9ff}.st6{fill:#f9a7a7}.st7{fill:#4671c6}.st8{fill:#ffea92}.st9{fill:#b9befc}.st10{fill:#3962ca}.st11{fill:#dda073}</style><path class="st0" d="M247.313 172.173c-4.907-8.429-15.774-11.317-24.272-6.45l-40.439 23.156a14.004 14.004 0 0 1-9.418 1.633l-52.758-9.42-7.333-.839h43.297c9.733 0 17.623-7.89 17.623-17.623a5.54 5.54 0 0 0-5.539-5.539h-50.055c-3.509 0-6.976.761-10.162 2.232l-32.839 15.153a39.071 39.071 0 0 1-16.369 3.595h-1.112v46.323h9.691l110.399-9.693.238-.019 3.186-.26a18.747 18.747 0 0 0 7.405-2.38l56.412-32.302c2.672-1.531 3.587-4.918 2.045-7.567z"/><path class="st1" d="M67.628 226.394h-9.691a2 2 0 0 1-2-2V178.07a2 2 0 0 1 2-2h1.112a37.322 37.322 0 0 0 15.531-3.41l32.838-15.153a26.427 26.427 0 0 1 11-2.416h50.056c4.156 0 7.538 3.382 7.538 7.539 0 10.82-8.803 19.623-19.622 19.623h-18.086l35.231 6.291a12.018 12.018 0 0 0 8.071-1.399l40.439-23.156c9.436-5.403 21.545-2.182 26.995 7.179a7.45 7.45 0 0 1 .764 5.716 7.492 7.492 0 0 1-3.542 4.592l-56.412 32.302a20.61 20.61 0 0 1-8.195 2.635l-3.457.282-110.396 9.693a3.295 3.295 0 0 1-.174.006zm-7.69-4h7.604l110.577-9.707 3.172-.258a16.599 16.599 0 0 0 6.573-2.123l56.412-32.303a3.52 3.52 0 0 0 1.667-2.156 3.477 3.477 0 0 0-.357-2.667c-4.348-7.469-14.016-10.034-21.55-5.721l-40.439 23.157a16.034 16.034 0 0 1-10.763 1.866l-52.697-9.409-7.271-.833a2 2 0 0 1 .228-3.987h43.298c8.614 0 15.622-7.008 15.622-15.623a3.542 3.542 0 0 0-3.538-3.539H118.42a22.4 22.4 0 0 0-9.324 2.048l-32.838 15.153a41.385 41.385 0 0 1-16.319 3.769v42.333z"/><path class="st3" d="M55.203 167.146H43.938v66h11.265a2.735 2.735 0 0 0 2.735-2.735v-60.53a2.735 2.735 0 0 0-2.735-2.735z"/><circle class="st4" cx="139.438" cy="76.854" r="60"/><ellipse transform="rotate(-22.5 139.432 76.852)" class="st8" cx="139.438" cy="76.854" rx="49.148" ry="49.148"/><path class="st7" d="M135.451 109.049c-8.779-1.325-15.138-6.761-15.859-15.644-.075-.925.676-1.714 1.604-1.714h6.946c.793 0 1.451.584 1.584 1.366.526 3.09 2.072 5.507 4.761 6.782 1.073.509 2.317-.256 2.317-1.444V81.62c0-.719-.479-1.349-1.171-1.544-7.892-2.232-16.109-5.147-16.109-17.475 0-9.821 6.462-16.71 15.938-18.183a1.594 1.594 0 0 0 1.342-1.578v-4.513c0-.886.718-1.604 1.604-1.604h2.141c.886 0 1.604.718 1.604 1.604v4.416c0 .783.566 1.462 1.341 1.579 8.174 1.234 13.825 6.325 15.088 15.079.139.962-.622 1.824-1.594 1.824h-6.88c-.769 0-1.406-.55-1.573-1.3-.514-2.307-1.833-4.399-3.869-5.734-1.078-.707-2.512.038-2.512 1.328v16.132c0 .725.487 1.358 1.187 1.549 7.881 2.144 16.012 4.981 16.012 17.3 0 8.536-5.601 16.82-15.858 18.456a1.596 1.596 0 0 0-1.341 1.577v4.516c0 .886-.718 1.604-1.604 1.604h-2.141a1.604 1.604 0 0 1-1.604-1.604v-4.418a1.6 1.6 0 0 0-1.354-1.582zm1.352-40.127V54.814c0-1.085-1.067-1.89-2.091-1.531-3.392 1.191-5.644 4.077-5.644 8.767 0 4.341 2.19 6.729 5.408 8.308 1.072.526 2.327-.243 2.327-1.436zm5.35 15.429V98.44c0 1.165 1.2 1.931 2.268 1.466 3.517-1.53 5.468-4.874 5.468-8.858 0-4.271-2.195-6.584-5.42-8.139-1.07-.515-2.316.254-2.316 1.442z"/><path class="st1" d="M139.438 138.854c-34.187 0-62-27.813-62-62s27.813-62 62-62 62 27.813 62 62-27.814 62-62 62zm0-120c-31.981 0-58 26.019-58 58s26.019 58 58 58 58-26.019 58-58-26.019-58-58-58z"/><path class="st6" d="M206.506 112.211V65.208a2 2 0 0 0-2-2h-19a2 2 0 0 0-2 2v47.004a2 2 0 0 1-2 2h-5.24c-1.782 0-2.674 2.154-1.414 3.414l18.171 18.168a2 2 0 0 0 2.828 0l18.171-18.168c1.26-1.26.368-3.414-1.414-3.414h-4.102a2.002 2.002 0 0 1-2-2.001z"/><path class="st7" d="M40.927 239.145H7.938v-80h32.989a3.01 3.01 0 0 1 3.011 3.011v73.978a3.01 3.01 0 0 1-3.011 3.011z"/><path class="st1" d="M40.926 241.146H7.938a2 2 0 0 1-2-2v-80a2 2 0 0 1 2-2h32.989a5.017 5.017 0 0 1 5.011 5.011v73.978a5.018 5.018 0 0 1-5.012 5.011zm-30.988-4h30.989c.558 0 1.011-.454 1.011-1.011v-73.978c0-.558-.454-1.011-1.011-1.011H9.938v76zm184.5-98.769a3.99 3.99 0 0 1-2.828-1.169l-18.171-18.168c-1.148-1.148-1.488-2.859-.867-4.359s2.071-2.469 3.695-2.469h5.24V65.208c0-2.206 1.794-4 4-4h19c2.206 0 4 1.794 4 4v47.006l4.102-.002c1.624 0 3.075.97 3.696 2.47.621 1.5.28 3.211-.868 4.358l-18.171 18.168a3.986 3.986 0 0 1-2.828 1.169zm-18.171-22.166l18.171 18.168 18.171-18.168h-4.102c-2.206 0-4-1.794-4-4V65.208h-19v47.004c0 2.206-1.794 4-4 4h-5.24z"/><path class="st1" d="M55.203 235.146H43.938a2 2 0 0 1-2-2v-66a2 2 0 0 1 2-2h11.265a4.74 4.74 0 0 1 4.735 4.735v60.53a4.742 4.742 0 0 1-4.735 4.735zm-9.265-4h9.265c.405 0 .735-.33.735-.735v-60.53a.736.736 0 0 0-.735-.735h-9.265v62z"/></svg>