<svg height="512" viewBox="0 0 512 512" width="512" xmlns="http://www.w3.org/2000/svg"><g fill="#57a4ff"><path d="M479 352v72h-63a16 16 0 0 0-32 0H183v-72zm-359 32a40 40 0 1 0 40 40 40 40 0 0 0-40-40zm0 56a16 16 0 1 1 16-16 16 16 0 0 1-16 16z"/><path d="M400 384a40 40 0 1 0 40 40 40 40 0 0 0-40-40zm0 56a16 16 0 1 1 16-16 16 16 0 0 1-16 16zM152 224v88H32l50.29-88zM32 336h24a16 16 0 0 1 16 16 16 16 0 0 1-16 16H32v-32z"/></g><path d="M336 96a104 104 0 1 0 104 104A104 104 0 0 0 336 96zm0 184a80 80 0 1 1 80-80 80 80 0 0 1-80 80zM312 48h48v24h-48z" fill="#57a4ff"/><path d="M416 128l16-16" fill="none"/><g fill="#004fac"><path d="M120 448a24 24 0 1 0-24-24 24.027 24.027 0 0 0 24 24zm0-32a8 8 0 1 1-8 8 8.009 8.009 0 0 1 8-8zm280-16a24 24 0 1 0 24 24 24.027 24.027 0 0 0-24-24zm0 32a8 8 0 1 1 8-8 8.009 8.009 0 0 1-8 8z"/><path d="M480 160h-39.39a111.977 111.977 0 0 0-16.38-28.91l13.43-13.43a8 8 0 1 0-11.32-11.32l-12.86 12.86A111.626 111.626 0 0 0 344 88.29V80h16a8 8 0 0 0 8-8V48a8 8 0 0 0-8-8h-48a8 8 0 0 0-8 8v24a8 8 0 0 0 8 8h16v8.29A112.229 112.229 0 0 0 231.39 160H184a8 8 0 0 0-8 8v24H96a8.019 8.019 0 0 0-6.95 4.03l-64 112A8.017 8.017 0 0 0 24 312v112a8 8 0 0 0 8 8h40.68a48.089 48.089 0 0 0 20.83 32H16a8 8 0 0 0 0 16h448a8 8 0 0 0 0-16h-37.51a48.089 48.089 0 0 0 20.83-32H480a8 8 0 0 0 8-8V168a8 8 0 0 0-8-8zM320 64v-8h32v8zm16 40a96 96 0 1 1-96 96 96.115 96.115 0 0 1 96-96zM86.93 232H144v72H45.79zM40 344h16a8 8 0 0 1 0 16H40zm32.68 72H40v-40h16a24 24 0 0 0 0-48H40v-8h112a8 8 0 0 0 8-8v-88a8 8 0 0 0-8-8H96.07l4.57-8H176v208h-8.68a47.99 47.99 0 0 0-94.64 0zM120 456a32 32 0 1 1 32-32 32.03 32.03 0 0 1-32 32zm26.49 8a48.089 48.089 0 0 0 20.83-32h185.36a48.089 48.089 0 0 0 20.83 32zM400 456a32 32 0 1 1 32-32 32.03 32.03 0 0 1-32 32zm72-40h-24.68a47.99 47.99 0 0 0-94.64 0H192v-56h280zm0-72H192V176h34.6a112 112 0 1 0 218.8 0H472z"/><path d="M336 288a88 88 0 1 0-88-88 88.1 88.1 0 0 0 88 88zm0-160a72 72 0 1 1-72 72 72.081 72.081 0 0 1 72-72z"/><path d="M346.343 221.657a8 8 0 1 0 11.314-11.314L344 196.687V168a8 8 0 0 0-16 0v32a8 8 0 0 0 2.343 5.657zM496 464h-8a8 8 0 0 0 0 16h8a8 8 0 0 0 0-16z"/></g></svg>