<svg xmlns="http://www.w3.org/2000/svg" viewBox="0 0 512.035 512.035"><path d="M488.502 256.035l22.464-58.592c2.464-6.464.544-13.792-4.864-18.176l-48.704-39.488-9.856-61.984c-1.088-6.848-6.464-12.192-13.312-13.28l-61.984-9.856L332.79 5.923c-4.352-5.408-11.84-7.328-18.144-4.864l-58.624 22.496L197.43 1.091c-6.496-2.496-13.76-.512-18.144 4.864l-39.488 48.736-61.984 9.856a16.033 16.033 0 0 0-13.28 13.28l-9.856 61.984-48.736 39.488c-5.376 4.352-7.328 11.68-4.864 18.144l22.464 58.592-22.464 58.592c-2.496 6.464-.512 13.792 4.864 18.144l48.736 39.456 9.856 61.984c1.088 6.848 6.432 12.224 13.28 13.312l61.984 9.856 39.488 48.704a15.923 15.923 0 0 0 18.176 4.864l58.56-22.432 58.592 22.464a16.066 16.066 0 0 0 5.728 1.056c4.704 0 9.344-2.08 12.448-5.952l39.456-48.704 61.984-9.856a16.03 16.03 0 0 0 13.312-13.312l9.856-61.984 48.704-39.456c5.408-4.384 7.328-11.68 4.864-18.144l-22.464-58.592z" fill="#2196f3"/><path d="M112.022 208.035c8.832 0 16-7.168 16-16s-7.168-16-16-16h-32c-8.832 0-16 7.168-16 16v128c0 8.832 7.168 16 16 16s16-7.168 16-16v-48h16c8.832 0 16-7.168 16-16s-7.168-16-16-16h-16v-32h16zm224 0c8.832 0 16-7.168 16-16s-7.168-16-16-16h-32c-8.832 0-16 7.168-16 16v128c0 8.832 7.168 16 16 16h32c8.832 0 16-7.168 16-16s-7.168-16-16-16h-16v-32h16c8.832 0 16-7.168 16-16s-7.168-16-16-16h-16v-32h16zm96 64c8.832 0 16-7.168 16-16s-7.168-16-16-16h-16v-32h16c8.832 0 16-7.168 16-16s-7.168-16-16-16h-32c-8.832 0-16 7.168-16 16v128c0 8.832 7.168 16 16 16h32c8.832 0 16-7.168 16-16s-7.168-16-16-16h-16v-32h16zm-176-48c0-26.464-21.536-48-48-48h-32c-8.832 0-16 7.168-16 16v128c0 8.832 7.168 16 16 16s16-7.168 16-16v-37.344l35.2 46.944c3.136 4.192 7.936 6.4 12.8 6.4a15.79 15.79 0 0 0 9.568-3.2c7.072-5.312 8.512-15.328 3.2-22.4l-30.56-40.8c19.488-6.08 33.792-24.096 33.792-45.6zm-48 16h-16v-32h16c8.832 0 16 7.168 16 16s-7.168 16-16 16z" fill="#fafafa"/></svg>