<svg height="512" viewBox="0 0 24 24" width="512" xmlns="http://www.w3.org/2000/svg"><circle cx="12" cy="12" fill="#2196f3" r="12"/><path d="M12 24C5.383 24 0 18.617 0 12S5.383 0 12 0s12 5.383 12 12-5.383 12-12 12zm0-22.5C6.21 1.5 1.5 6.21 1.5 12S6.21 22.5 12 22.5 22.5 17.79 22.5 12 17.79 1.5 12 1.5z"/><path d="M12 6a.75.75 0 0 1-.75-.75v-1.5a.75.75 0 0 1 1.5 0v1.5A.75.75 0 0 1 12 6zm0 15a.75.75 0 0 1-.75-.75v-1.5a.75.75 0 0 1 1.5 0v1.5A.75.75 0 0 1 12 21zM6.154 9.375a.744.744 0 0 1-.375-.101l-1.299-.75a.75.75 0 0 1 .75-1.298l1.299.75a.75.75 0 0 1-.375 1.399zm12.99 7.5a.744.744 0 0 1-.375-.101l-1.299-.75a.75.75 0 1 1 .75-1.298l1.299.75a.75.75 0 0 1-.375 1.399zm-14.288 0a.75.75 0 0 1-.376-1.399l1.299-.75a.751.751 0 0 1 .751 1.298l-1.299.75a.744.744 0 0 1-.375.101zm12.99-7.5a.75.75 0 0 1-.376-1.399l1.299-.75a.75.75 0 0 1 .75 1.298l-1.299.75a.733.733 0 0 1-.374.101z"/></svg>