<svg xmlns="http://www.w3.org/2000/svg" width="525" height="1025" viewBox="0, 0, 525, 1025"><path d="M411.165 1023.375h-292.5l2.5-89.375H406.79l4.375 89.375" fill="#4D4E4C"/><path d="M121.165 965.875s-2.5 45-2.5 55.625m288.94-55.625s2.5 45 2.5 55.625" stroke="#1A1919" stroke-width="7" stroke-linecap="round" stroke-linejoin="round" fill="none"/><path d="M480.105 639s41.875 91.25 38.75 115-31.875 134.375-31.875 134.375 10.625 43.75 6.25 51.25-27.045 34.79-39.585 35.415c-12.5.625-26.67-3.955-38.23-5.415-14.17-1.795-22.185-.94-23.435-3.75l.62 1.04s-10.83 1.045-10.625-3.33c.205-4.375 10-9.585 10-9.585l33.755-7.5 11.875-256.25 42.5-51.25" fill="#F8D2B5"/><path d="M72.205 663.48s14.58 23.34 13.75 35.42l25.41-41.25 1.445 18.42c3.79 40.28 9.3 94.615 12.725 109.075h272.5c1.82-7.665 14.375-124.375 14.375-124.375l18.13 31.98s42.5-81.875 38.75-116.25-25.525-60.98-39.375-66.25c-26.25-10-105.04-18.885-105.04-18.885-13.215-19.62-28.35-27.345-28.35-27.345l-70.205-1.51s-18.115 13.07-30.195 30.57c0 0-70.585 7.795-92.46 12.795l-26.25 15-5.21 142.605" fill="#9BD1C4"/><path d="M111.165 660.875L84.915 701.5c-4.375-14.375-54.375-78.125-54.375-78.125 3.75-13.75 33.75-80 40-91.875s16.25-19.375 33.125-25.625c8.695-3.225 28.59-6.7 45-8.75 0 0-19.375 20-38.75 141.25l1.25 22.5m300 0l26.25 40.625c4.375-14.375 54.375-78.125 54.375-78.125-3.75-13.75-33.75-80-40-91.875s-16.25-19.375-33.125-25.625c-8.69-3.225-28.585-6.7-45-8.75 0 0 19.375 20 38.75 141.25l-1.25 22.5" fill="#009D90"/><path d="M42.415 639S.54 730.25 3.665 754 35.54 888.375 35.54 888.375s-10.625 43.75-6.25 51.25 27.045 34.79 39.585 35.415c12.5.625 26.67-3.955 38.23-5.415 14.17-1.795 22.185-.94 23.435-3.75l-.62 1.04s10.83 1.045 10.625-3.33c-.205-4.375-10-9.585-10-9.585l-33.755-7.5-14.165-251.46L42.415 639" fill="#F8D2B5"/><path d="M443.46 693.375s30.42-48.75 35.835-51.25l9.69 19.145c-18.345 18.35-31.79 68.435-31.79 68.435l-13.735-36.33m-364.585 0s-30.42-48.75-35.835-51.25l-10.465 18.62c6.705 7.02 25.32 26.545 38.135 59.185l8.165-26.555" fill="#DB9D88"/><path d="M230.67 471.415l1.115-10.64v-12.08L290.34 446v14.775l1.055 10 3.255 3.805c19.665 16.07-33.585 41.575-33.585 41.575S207.81 490.65 227.48 474.58l3.19-3.165" fill="#F8D2B5"/><path d="M233 448.645l-2.47 36.95s40.915-.41 57.86-18.835l1.95-15.675-57.34-2.44" fill="#DB9D88"/><path d="M247.41 517.335h27.08v96.25h-27.08z" fill="#009D90"/><path d="M274.49 517.335v96.25h-27.08v-96.25" stroke="#1A1919" stroke-width="6" stroke-linecap="round" stroke-linejoin="round" fill="none"/><path d="M227.48 474.58c-19.67 16.07 34.415 41.575 34.415 41.575s-14.68 40.72-37.48 42.995c-11.66 1.17-27.18-30.365-27.18-65.665 0 0 19.04-25.02 23.065-27.765 4.02-2.74 11.045-5.31 12.32-4.945 1.28.37-.42 11.87-.42 11.87l-4.72 1.935" fill="#009D90"/><path d="M294.65 474.58c19.665 16.07-34.415 41.575-34.415 41.575s14.675 40.72 37.48 42.995c11.66 1.17 27.18-30.365 27.18-65.665 0 0-5.88-11.5-8.8-14.97-2.93-3.47-15.55-16.09-18.47-17-2.925-.915-9.42-2.93-9.795-.74-.36 2.195.85 12.725 1.4 13.275.545.555 5.655-.105 5.655-.105" fill="#009D90"/><path d="M424.605 243.265c2.795-14.94 4.775-28.65 6.04-41.285-1.39-32.375-91.06-73.54-178.32-71.835-82.505 1.615-162.97 44.635-161.235 65.64 1.565 18.915.045 18.895 7.485 47.45l.525 15.155 324.9-.605.605-14.52" fill="#564137"/><path d="M102.8 192.87s-5.435 19.535 2.395 50.98l-6.62-.615s-11.63-33.285-8.515-42.975l12.74-7.39" fill="#997B6F"/><path d="M98.575 243.235s-4.23-12.685-7.51-31.845c-.715-4.14.785-8.475.22-13.16-.73-6 96.04-48.71 148.225-69.96 0 0 190.8 66.245 192.62 72.83-1.56 12.845-4.015 26.845-7.525 42.165" stroke="#1A1919" stroke-width="7" stroke-linecap="round" stroke-linejoin="round" fill="none"/><g stroke="#1A1919" stroke-linecap="round" stroke-linejoin="round" fill="none"><path d="M232.2 472.645c-30 16.25 28.335 43.51 28.335 43.51s-13.32 40.72-36.12 42.995c-11.66 1.17-27.18-30.365-27.18-65.665m92.88-21.05c25.625 18.335-28.795 43.72-28.795 43.72s13.59 40.72 36.395 42.995c11.66 1.17 27.18-30.365 27.18-65.665m-93.525-8.965l2.5-23.745m56.46 23.745l-2.5-23.745" stroke-width="6"/><path d="M229.91 459.935s-21.465 11.67-33.785 33.145c0 0-70.37 4.61-92.46 12.795-16.875 6.25-26.875 13.75-33.125 25.625s-36.25 78.125-40 91.875c0 0 50 63.75 54.375 78.125l26.25-40.625m303.745-30.73s-11.25 131.25-16.875 155m-289.375-155s11.25 131.25 16.875 155" stroke-width="7"/></g><path d="M383.205 611.405v68.89c0 10.91-8.935 19.84-19.845 19.84h-45.745c-10.905 0-19.84-8.93-19.84-19.84v-68.89h85.43z" stroke="#1A1919" stroke-width="5" stroke-linecap="round" stroke-linejoin="round" fill="none"/><path d="M114.87 254.81s-30.795-24.69-42.36 14.03c-13.285 44.475 30.055 95.745 57.555 98.87" fill="#F8D2B5"/><path d="M114.87 254.81s-30.795-24.69-42.36 14.03c-13.285 44.475 30.055 95.745 57.555 98.87" stroke="#1A1919" stroke-width="7" stroke-linecap="round" stroke-linejoin="round" fill="none"/><path d="M89.47 311.06c6.325 14.395 18.33 23.045 26.795 19.325 8.475-3.73 10.205-18.415 3.865-32.82-6.325-14.395-18.33-23.05-26.795-19.32-8.475 3.72-10.195 18.41-3.865 32.815" fill="#DB9D88"/><path d="M88.97 270.12s16.355-7.185 29.025 20.725" stroke="#1A1919" stroke-width="7" stroke-linecap="round" stroke-linejoin="round" fill="none"/><path d="M406.445 251.185s30.165-25.445 42.695 12.97c14.385 44.135-27.665 96.465-55.08 100.275" fill="#F8D2B5"/><path d="M406.445 251.185s30.165-25.445 42.695 12.97c14.385 44.135-27.665 96.465-55.08 100.275" stroke="#1A1919" stroke-width="7" stroke-linecap="round" stroke-linejoin="round" fill="none"/><path d="M433.23 306.785c-5.965 14.55-17.745 23.5-26.305 19.99-8.565-3.525-10.655-18.16-4.68-32.72 5.97-14.55 17.755-23.495 26.31-19.975 8.565 3.51 10.65 18.145 4.675 32.705" fill="#DB9D88"/><path d="M432.715 265.85s-16.535-6.78-28.495 21.435" stroke="#1A1919" stroke-width="7" stroke-linecap="round" stroke-linejoin="round" fill="none"/><path d="M412.04 234.375c-1.32 33.745-7.58 106.12-27.635 151.88-19.63 44.795-63.145 64.99-108.77 76.705-14.79 3.09-28.75 0-28.75 0-45.625-11.715-92.405-33.55-108.77-76.705-17.72-46.725-26.315-118.135-27.635-151.88 8.72-35.295 23.805-63.6 36.18-82.535l5.02-.175c14.045-.845 27.685-4.895 40.12-10.35l3.63 4.935c58.75 2.5 113.955-31.665 132.08-56.04 0 0 7.3 60.62 67.505 92.29l3.3-.005c5.275 13.31 10.215 28.415 13.72 44.63l.005 7.25" fill="#F8D2B5"/><path d="M176.335 34.56s40.41 26.67 89.815 28.295c0 0 18.02 5.975-18.025 7.64-36.05 1.68-74.07-2.33-96.93-13.405l25.14-22.53" fill="#B7A293"/><path d="M166.885 125.2S127.1 167.085 110.48 234.375c1.32 33.745 9.915 105.155 27.635 151.88 16.365 43.155 78.84 76.705 123.145 76.705 41.875 0 103.515-31.91 123.145-76.705 20.055-45.76 26.315-118.135 27.635-151.88" stroke="#1A1919" stroke-width="7" stroke-linecap="round" stroke-linejoin="round" fill="none"/><path d="M249.59 272.805s3.455 13.14 1.15 26.675m6.005-7.485s-13.95 17.445-14.305 23.725c-.345 6.265 11.47 16.735 11.47 16.735" stroke="#1A1919" stroke-width="6" stroke-linecap="round" stroke-linejoin="round" fill="none"/><path d="M177.14 304.535c0 7.375-11.785 13.35-26.315 13.35-14.53 0-26.325-5.975-26.325-13.35 0-7.37 11.795-13.34 26.325-13.34s26.315 5.97 26.315 13.34m167.41 0c0 7.375 11.785 13.35 26.315 13.35 14.53 0 26.32-5.975 26.32-13.35 0-7.37-11.79-13.34-26.32-13.34-14.53 0-26.315 5.97-26.315 13.34" fill="#EB9294"/><path d="M226.965 259.32c0 21.9-13.985 39.65-31.235 39.65-17.27 0-31.245-17.75-31.245-39.65 0-21.915 13.975-39.67 31.245-39.67 17.25 0 31.235 17.755 31.235 39.67m68.59 0c0 21.9 13.985 39.65 31.24 39.65 17.265 0 31.24-17.75 31.24-39.65 0-21.915-13.975-39.67-31.24-39.67-17.255 0-31.24 17.755-31.24 39.67" fill="#FFFFFE"/><path d="M163.825 251.92s3.32-24.205 25.925-30.93c26.44-7.865 33.22 18.835 33.22 18.835s-13.77-10.245-30.175-6.06c-15.475 3.94-28.97 18.155-28.97 18.155m194.875 0s-3.325-24.205-25.925-30.93c-26.435-7.865-33.225 18.835-33.225 18.835s13.775-10.245 30.175-6.06c15.485 3.94 28.975 18.155 28.975 18.155" fill="#D8E9F1"/><path d="M300.715 258.975c0 14.66 7.975 26.565 17.805 26.565 9.825 0 17.805-11.905 17.805-26.565 0-14.67-7.98-26.555-17.805-26.555-9.83 0-17.805 11.885-17.805 26.555" fill="#1A1919"/><path d="M299.55 239.825s6.79-26.7 33.225-18.835c22.6 6.725 25.925 30.93 25.925 30.93" stroke="#1A1919" stroke-width="7" stroke-linecap="round" stroke-linejoin="round" fill="none"/><path d="M232.905 198.66c-1.61 1.78-10.32-5.05-21.375-6.525-5.48-.87-11.395-.675-16.45 0-5.12.57-8.46 1.86-10.47 2.675-3.82 1.565-7.755 4.31-10.93 6.37-3.205 2.025-5.89 3.445-8.305 1.615-2.365-1.78-1.405-5.395 1.8-8.985 3.16-3.615 8.435-6.85 13.345-8.845 1.235-.49 3.04-1.21 5.39-1.81 2.325-.645 5.285-1.055 8.11-1.28 5.825-.485 12.935-.235 19.45 1.64 6.535 1.83 12.125 5.27 15.445 8.46 3.36 3.19 4.75 5.86 3.99 6.685m57.55 0c-.765-.83.63-3.495 3.99-6.69 3.32-3.185 8.91-6.625 15.445-8.455 6.51-1.875 13.625-2.125 19.45-1.64 2.825.225 5.785.635 8.11 1.28 2.35.6 4.155 1.32 5.39 1.81 4.91 1.995 10.185 5.225 13.345 8.84 3.21 3.595 4.165 7.205 1.8 8.99-2.415 1.83-5.1.41-8.3-1.615-3.175-2.06-7.11-4.805-10.94-6.37-2.005-.815-5.34-2.105-10.465-2.68-5.055-.67-10.97-.865-16.45 0-11.06 1.48-19.77 8.31-21.375 6.53" fill="#1A1919"/><path d="M195.43 146.25c58.75 2.5 113.955-31.665 132.08-56.04 0 0 7.3 60.62 67.505 92.29m-145-80.835s-46.46 46.875-98.335 50m216.825-23.805s35.005 50.315 45.005 114.065" stroke="#1A1919" stroke-width="7" stroke-linecap="round" stroke-linejoin="round" fill="none"/><path d="M221.805 258.975c0 14.66-7.97 26.565-17.805 26.565-9.82 0-17.795-11.905-17.795-26.565 0-14.67 7.975-26.555 17.795-26.555 9.835 0 17.805 11.885 17.805 26.555" fill="#1A1919"/><path d="M220.95 249.475c0 3.445-2.44 6.24-5.455 6.24-3.005 0-5.45-2.795-5.45-6.24 0-3.465 2.445-6.27 5.45-6.27 3.015 0 5.455 2.805 5.455 6.27m114.415 0c0 3.445-2.44 6.24-5.46 6.24-3.005 0-5.45-2.795-5.45-6.24 0-3.465 2.445-6.27 5.45-6.27 3.02 0 5.46 2.805 5.46 6.27" fill="#FFFFFE"/><path d="M222.97 239.825s-6.78-26.7-33.22-18.835c-22.605 6.725-25.925 30.93-25.925 30.93" stroke="#1A1919" stroke-width="7" stroke-linecap="round" stroke-linejoin="round" fill="none"/><path d="M89.455 213.895c0-7.65 32.09-37.08 171.48-37.08 139.41 0 171.515 29.43 171.515 37.08l-12.56-79.365-296.555-12.475s-21.495 13.37-23.285 23.16c-1.785 9.82-10.595 68.68-10.595 68.68" fill="#9BD1C4"/><path d="M89.455 213.895c0-7.65 32.09-37.08 171.48-37.08 139.41 0 171.515 29.43 171.515 37.08l-12.56-79.365-296.555-12.475s-21.495 13.37-23.285 23.16c-1.785 9.82-10.595 68.68-10.595 68.68z" stroke="#1A1919" stroke-width="7" stroke-linecap="round" stroke-linejoin="round" fill="none"/><path d="M260.935 3.6c47.65 0 111.86 12.475 138.655 51.825 20.65 30.305 34.67 80.93 34.67 153.295 0-14.65-39.245-69.41-173.325-69.41-140.855 0-173.29 54.76-173.29 69.41 0-80.145 14.03-122.99 34.66-153.295C149.11 16.075 213.32 3.6 260.935 3.6" fill="#009D90"/><path d="M260.935 3.6c47.15 0 111.875 13.835 138.67 54.15 20.65 31.05 32.845 73.15 32.845 153.295 0-14.645-32.105-71.735-171.515-71.735-139.39 0-171.48 57.09-171.48 71.735C89.455 130.9 101.66 88.8 122.29 57.75 149.1 17.435 213.82 3.6 260.935 3.6z" stroke="#1A1919" stroke-width="7" stroke-linecap="round" stroke-linejoin="round" fill="none"/><path d="M330.89 93.295c0 16.495-31.415 29.87-70.16 29.87-38.765 0-70.19-13.375-70.19-29.87 0-16.485 31.425-29.86 70.19-29.86 38.745 0 70.16 13.375 70.16 29.86" fill="#9BD1C4"/><path d="M257.945 361.82c37.9 0 57.4-6.815 57.4-6.815.335 16.2-4.985 80.685-55.515 80.685s-55.845-64.485-55.52-80.685c0 0 15.73 6.815 53.635 6.815" fill="#DC6376"/><path d="M260.495 373.15c19.445 0 37.32 5.685 51.705 14.095 2.715-12.175 3.265-26.755 3.145-32.24 0 0-19.61 4.2-57.515 4.2s-53.52-4.2-53.52-4.2c-.11 5.59.45 20.48 3.3 32.915 13.825-9.425 32.91-14.77 52.885-14.77" fill="#B35251"/><g stroke="#1A1919" stroke-linecap="round" stroke-linejoin="round" fill="none"><path d="M257.83 359.205c37.905 0 57.515-4.2 57.515-4.2.335 16.2-4.985 80.685-55.515 80.685s-55.845-64.485-55.52-80.685c0 0 15.615 4.2 53.52 4.2z" stroke-width="6"/><path d="M42.415 639S.54 730.25 3.665 754 35.54 888.375 35.54 888.375s-10.625 43.75-6.25 51.25 27.045 34.79 39.585 35.415c12.5.625 26.67-3.955 38.23-5.415 14.17-1.795 22.185-.94 23.435-3.75 1.25-2.815-8.435-11.25-19.375-12.19m19.38.315s9.795 5.21 10 9.585c.205 4.375-10.625 3.33-10.625 3.33m-76.875-92.29s14.9 15.37 10 43.75c.83 10.005.325 15.63-2.5 24.38-4.375 9.79-15.32 9.475-13.96 5.205 3.125-9.795 1.875-14.795 1.665-17.5-.21-2.705-6.875-16.67-6.875-16.67m251.23-453.855s21.47 11.67 33.79 33.145c0 0 70.37 4.61 92.46 12.795 16.875 6.25 26.875 13.75 33.125 25.625s36.25 78.125 40 91.875c0 0-50 63.75-54.375 78.125l-24.495-37.9m66.995-24.6s41.875 91.25 38.75 115-31.875 134.375-31.875 134.375 10.625 43.75 6.25 51.25-27.045 34.79-39.585 35.415c-12.5.625-26.67-3.955-38.23-5.415-14.17-1.795-22.185-.94-23.435-3.75-1.25-2.815 8.435-11.25 19.375-12.19m-19.38.315s-9.795 5.21-10 9.585c-.205 4.375 10.625 3.33 10.625 3.33m76.875-92.29s-14.9 15.37-10 43.75c-.83 10.005-.325 15.63 2.5 24.38 4.375 9.79 15.32 9.475 13.96 5.205-3.125-9.795-1.875-14.795-1.665-17.5.21-2.705 6.875-16.67 6.875-16.67" stroke-width="7"/></g><path d="M64.035 659.79H458.49V954H64.035z" fill="#C7A873"/><path d="M241.165 661.5h46.875V729h-46.875z" fill="#F5E1AD"/><path d="M64.035 659.79H458.49V954H64.035z" stroke="#1A1919" stroke-width="7.5" stroke-linecap="round" stroke-linejoin="round" fill="none"/></svg>