<svg height="512" viewBox="0 0 512 512" width="512" xmlns="http://www.w3.org/2000/svg"><g><g><g fill="#57a4ff"><path d="m479 352v72h-63a16 16 0 0 0 -32 0h-201v-72z"/><path d="m120 384a40 40 0 1 0 40 40 40 40 0 0 0 -40-40zm0 56a16 16 0 1 1 16-16 16 16 0 0 1 -16 16z"/><path d="m400 384a40 40 0 1 0 40 40 40 40 0 0 0 -40-40zm0 56a16 16 0 1 1 16-16 16 16 0 0 1 -16 16z"/><path d="m152 224v88h-120l50.29-88z"/><path d="m32 336h24a16 16 0 0 1 16 16 16 16 0 0 1 -16 16h-24a0 0 0 0 1 0 0v-32a0 0 0 0 1 0 0z"/></g><g><path d="m336 96a104 104 0 1 0 104 104 104 104 0 0 0 -104-104zm0 184a80 80 0 1 1 80-80 80 80 0 0 1 -80 80z" fill="#57a4ff"/><path d="m312 48h48v24h-48z" fill="#57a4ff"/><path d="m416 128 16-16" fill="none"/></g></g><g fill="#004fac"><path d="m120 448a24 24 0 1 0 -24-24 24.027 24.027 0 0 0 24 24zm0-32a8 8 0 1 1 -8 8 8.009 8.009 0 0 1 8-8z"/><path d="m400 400a24 24 0 1 0 24 24 24.027 24.027 0 0 0 -24-24zm0 32a8 8 0 1 1 8-8 8.009 8.009 0 0 1 -8 8z"/><path d="m480 160h-39.39a111.977 111.977 0 0 0 -16.38-28.91l13.43-13.43a8 8 0 1 0 -11.32-11.32l-12.86 12.86a111.626 111.626 0 0 0 -69.48-30.91v-8.29h16a8 8 0 0 0 8-8v-24a8 8 0 0 0 -8-8h-48a8 8 0 0 0 -8 8v24a8 8 0 0 0 8 8h16v8.29a112.229 112.229 0 0 0 -96.61 71.71h-47.39a8 8 0 0 0 -8 8v24h-80a8.019 8.019 0 0 0 -6.95 4.03l-64 112a8.017 8.017 0 0 0 -1.05 3.97v112a8 8 0 0 0 8 8h40.68a48.089 48.089 0 0 0 20.83 32h-77.51a8 8 0 0 0 0 16h448a8 8 0 0 0 0-16h-37.51a48.089 48.089 0 0 0 20.83-32h32.68a8 8 0 0 0 8-8v-256a8 8 0 0 0 -8-8zm-160-96v-8h32v8zm16 40a96 96 0 1 1 -96 96 96.115 96.115 0 0 1 96-96zm-249.07 128h57.07v72h-98.21zm-46.93 112h16a8 8 0 0 1 0 16h-16zm32.68 72h-32.68v-40h16a24 24 0 0 0 0-48h-16v-8h112a8 8 0 0 0 8-8v-88a8 8 0 0 0 -8-8h-55.93l4.57-8h75.36v208h-8.68a47.99 47.99 0 0 0 -94.64 0zm47.32 40a32 32 0 1 1 32-32 32.03 32.03 0 0 1 -32 32zm26.49 8a48.089 48.089 0 0 0 20.83-32h185.36a48.089 48.089 0 0 0 20.83 32zm253.51-8a32 32 0 1 1 32-32 32.03 32.03 0 0 1 -32 32zm72-40h-24.68a47.99 47.99 0 0 0 -94.64 0h-160.68v-56h280zm0-72h-280v-168h34.6a112 112 0 1 0 218.8 0h26.6z"/><path d="m336 288a88 88 0 1 0 -88-88 88.1 88.1 0 0 0 88 88zm0-160a72 72 0 1 1 -72 72 72.081 72.081 0 0 1 72-72z"/><path d="m346.343 221.657a8 8 0 1 0 11.314-11.314l-13.657-13.656v-28.687a8 8 0 0 0 -16 0v32a8 8 0 0 0 2.343 5.657z"/><path d="m496 464h-8a8 8 0 0 0 0 16h8a8 8 0 0 0 0-16z"/></g></g></svg>