<svg id="Capa_1" enable-background="new 0 0 512 512" height="512" viewBox="0 0 512 512" width="512" xmlns="http://www.w3.org/2000/svg"><g><g><path d="m512 256c0 105.7-64.07 196.45-155.5 235.51-30.85 13.19-64.82 20.49-100.5 20.49s-69.65-7.3-100.5-20.49c-91.43-39.06-155.5-129.81-155.5-235.51 0-65.57 24.66-125.38 65.19-170.67 46.88-52.37 115-85.33 190.81-85.33s143.93 32.96 190.81 85.33c40.53 45.29 65.19 105.1 65.19 170.67z" fill="#4e689b"/><path d="m512 256c0 87.11-43.52 164.07-110 210.31-41.41 28.8-91.73 45.69-146 45.69s-104.59-16.89-146-45.69c-66.48-46.24-110-123.2-110-210.31 0-46.22 12.25-89.57 33.68-127 44.12 77.07 127.16 129 222.32 129s178.21-51.93 222.32-129c21.43 37.43 33.68 80.78 33.68 127z" fill="#374c81"/></g><g><path d="m423.7 449.41c-19.94 17.31-42.57 31.58-67.2 42.1-30.85 13.19-64.82 20.49-100.5 20.49s-69.65-7.3-100.5-20.49c-24.63-10.52-47.26-24.79-67.2-42.1 17.87-21.79 42.63-37.1 70.31-43.24 16.45-3.65 28.5-17.78 29.76-34.58l4.86-64.95h125.54l4.86 64.95c1.26 16.8 13.31 30.93 29.76 34.58 27.68 6.14 52.44 21.45 70.31 43.24z" fill="#6cdc2d"/><path d="m423.7 449.41c-19.94 17.31-42.57 31.58-67.2 42.1-30.85 13.19-64.82 20.49-100.5 20.49v-205.36h62.77l4.86 64.95c1.26 16.8 13.31 30.93 29.76 34.58 27.68 6.14 52.44 21.45 70.31 43.24z" fill="#53af17"/><g><g><g><g><g><g><g><g fill="#ffa87a"><path d="m256.132 343.738v.004"/><path d="m256.13 343.745.002-.007"/><path d="m256.1 343.745h.03"/></g><path d="m430.69 175.67-6.19 20.17c-8.26 26.88-29.64 47-55.82 54.22v63.82c0 12.3-5.35 23.99-14.67 32.02l-11.3 9.74c-19.32 16.66-43.99 25.83-69.51 25.83h-34.13c-25.52 0-50.19-9.17-69.52-25.83l-11.29-9.74c-9.32-8.03-14.68-19.72-14.68-32.02v-63.82c-26.17-7.22-47.56-27.34-55.81-54.22l-6.2-20.17c-2.03-6.62 5.28-12.19 11.12-8.47l49.01 31.19v-6.2c0-31.6 12.81-60.21 33.52-80.92 20.67-20.68 49.23-33.48 80.78-33.52h.13c63.2 0 114.44 51.24 114.44 114.44v6.2l49.01-31.19c5.84-3.72 13.15 1.85 11.11 8.47z" fill="#b6e337"/><path d="m430.69 175.67-6.19 20.17c-8.26 26.88-29.64 47-55.82 54.22v63.82c0 12.3-5.35 23.99-14.67 32.02l-11.3 9.74c-19.32 16.66-43.99 25.83-69.51 25.83h-17.2v-303.72h.13c63.2 0 114.44 51.24 114.44 114.44v6.2l49.01-31.19c5.84-3.72 13.15 1.85 11.11 8.47z" fill="#6cdc2d"/><g><g fill="#323b5a"><path d="m208.625 221.582c-1.585 2.279-2.52 5.044-2.52 8.03 0 7.781 6.308 14.09 14.09 14.09 7.781 0 14.089-6.308 14.089-14.09 0-2.986-.935-5.751-2.52-8.03z"/><path d="m280.425 221.582c-1.585 2.279-2.52 5.044-2.52 8.03 0 7.781 6.308 14.09 14.09 14.09s14.09-6.308 14.09-14.09c0-2.986-.935-5.751-2.52-8.03z"/></g></g></g></g></g></g></g><g><g><path d="m276.251 257.449c-3.272.257-6.515.902-9.663 1.924-4.745 1.541-7.972 5.945-7.972 10.933l18.801-2.856c6.409-.973 5.296-10.509-1.166-10.001z" fill="#53af17"/></g><g><path d="m235.749 257.449c3.272.257 6.515.902 9.663 1.924 4.744 1.541 7.972 5.945 7.972 10.933l-18.801-2.856c-6.409-.973-5.297-10.509 1.166-10.001z" fill="#53af17"/></g></g><path d="m301.41 335.35c-.18.02-.36.02-.55.02h-89.72c-.19 0-.37 0-.55-.02-9.99-.38-16.11-11.42-10.86-20.07 3.87-6.37 8.79-12.03 14.52-16.74 11.36-9.34 25.9-7.491 41.75-7.491s30.39-1.849 41.75 7.491c5.73 4.71 10.65 10.37 14.52 16.74 5.25 8.65-.87 19.69-10.86 20.07z" fill="#234177"/><g><path d="m298.66 335.36c-.17.01-.34.01-.51.01h-84.3c-.17 0-.34 0-.51-.01 6.72-12.77 23.29-21.8 42.66-21.8s35.94 9.03 42.66 21.8z" fill="#e32644"/><path d="m298.66 335.36c-.17.01-.34.01-.51.01h-42.15v-21.81c19.37 0 35.94 9.03 42.66 21.8z" fill="#bc0e5c"/></g><path d="m297.75 298.54h-83.5c11.36-9.34 25.9-14.95 41.75-14.95s30.39 5.61 41.75 14.95z" fill="#fff"/><g fill="#fff"><path d="m298.406 335.37h-21.387l17.693-27.815c1.053-1.656 3.616-.914 3.622 1.049z"/><path d="m213.594 335.37h21.387l-17.693-27.815c-1.053-1.656-3.616-.914-3.621 1.049z"/></g><path d="m333.64 209.29c0 3.39-1.38 6.47-3.6 8.69s-5.3 3.6-8.69 3.6h-130.7c-6.79 0-12.29-5.5-12.29-12.29 0-3.39 1.38-6.47 3.6-8.7 2.22-2.22 5.3-3.6 8.69-3.6h130.7c6.79 0 12.29 5.51 12.29 12.3z" fill="#6cdc2d"/><path d="m333.64 209.29c0 3.39-1.38 6.47-3.6 8.69s-5.3 3.6-8.69 3.6h-65.35v-24.59h65.35c6.79 0 12.29 5.51 12.29 12.3z" fill="#53af17"/><g><path d="m183.622 318.723c1.387 2.482 5.116 1.837 5.607-.963 2.039-11.632.24-24.012-5.968-35.125s-15.808-19.135-26.781-23.497c-2.642-1.05-5.146 1.787-3.76 4.269z" fill="#6cdc2d"/><path d="m328.378 318.723c-1.387 2.482-5.116 1.837-5.607-.963-2.039-11.632-.24-24.012 5.968-35.125s15.808-19.135 26.781-23.497c2.642-1.05 5.147 1.787 3.76 4.269z" fill="#53af17"/></g></g><g><path d="m127.604 231.266c9.94 9.94 25.47-4.452 16.041-14.878-.316-.35-.643-.693-.98-1.03-6.466-6.466-15.317-9.088-23.719-7.87-5.443.789-7.588 7.532-3.699 11.421z" fill="#6cdc2d"/><path d="m384.396 231.266c-9.94 9.94-25.47-4.452-16.041-14.878.316-.35.643-.693.979-1.03 6.466-6.466 15.317-9.088 23.719-7.87 5.443.789 7.587 7.532 3.699 11.421z" fill="#53af17"/></g></g><path d="m320.563 431.02c5.074 0 6.262 7.111 1.459 8.746-19.686 6.702-42.158 10.498-66.022 10.498s-46.336-3.796-66.022-10.498c-4.803-1.635-3.615-8.746 1.459-8.746z" fill="#53af17"/><path d="m322.022 439.766c-19.686 6.702-42.158 10.498-66.022 10.498v-19.244h64.563c5.074 0 6.262 7.111 1.459 8.746z" fill="#459611"/></g></g></svg>