<svg enable-background="new 0 0 24 24" height="512" viewBox="0 0 24 24" width="512" xmlns="http://www.w3.org/2000/svg"><circle cx="12" cy="12" fill="#2196f3" r="12"/><path d="m12 24c-6.617 0-12-5.383-12-12s5.383-12 12-12 12 5.383 12 12-5.383 12-12 12zm0-22.5c-5.79 0-10.5 4.71-10.5 10.5s4.71 10.5 10.5 10.5 10.5-4.71 10.5-10.5-4.71-10.5-10.5-10.5z"/><path d="m12 6c-.414 0-.75-.336-.75-.75v-1.5c0-.414.336-.75.75-.75s.75.336.75.75v1.5c0 .414-.336.75-.75.75z"/><path d="m12 21c-.414 0-.75-.336-.75-.75v-1.5c0-.414.336-.75.75-.75s.75.336.75.75v1.5c0 .414-.336.75-.75.75z"/><path d="m6.154 9.375c-.127 0-.256-.032-.375-.101l-1.299-.75c-.358-.207-.481-.666-.274-1.024s.667-.48 1.024-.274l1.299.75c.359.207.482.666.275 1.024-.139.24-.391.375-.65.375z"/><path d="m19.144 16.875c-.127 0-.256-.032-.375-.101l-1.299-.75c-.359-.207-.481-.666-.274-1.024.208-.358.667-.481 1.024-.274l1.299.75c.359.207.481.666.274 1.024-.138.24-.39.375-.649.375z"/><path d="m4.856 16.875c-.259 0-.511-.135-.65-.375-.207-.358-.084-.817.274-1.024l1.299-.75c.359-.207.818-.084 1.025.274s.084.817-.274 1.024l-1.299.75c-.119.069-.248.101-.375.101z"/><path d="m17.846 9.375c-.259 0-.511-.135-.65-.375-.207-.358-.084-.817.274-1.024l1.299-.75c.358-.206.817-.084 1.024.274s.084.817-.274 1.024l-1.299.75c-.117.069-.246.101-.374.101z"/></svg>